<svg width="13" height="13" viewBox="0 0 13 13" fill="none" xmlns="http://www.w3.org/2000/svg">
<path d="M10.9309 0.194041L6.00343 5.12154L1.07593 0.194041C0.957417 0.08559 0.80163 0.027046 0.641024 0.0306046C0.480418 0.0341631 0.327377 0.0995501 0.213784 0.213144C0.10019 0.326737 0.0348029 0.479778 0.0312443 0.640384C0.0276857 0.80099 0.0862298 0.956777 0.194681 1.07529L5.11968 6.00279L0.193431 10.929C0.133246 10.9864 0.0851351 11.0552 0.0519253 11.1314C0.0187156 11.2076 0.00107741 11.2897 4.78355e-05 11.3729C-0.000981742 11.456 0.0146181 11.5385 0.04593 11.6155C0.0772419 11.6925 0.123634 11.7625 0.18238 11.8213C0.241125 11.8802 0.311039 11.9266 0.38801 11.9581C0.464981 11.9895 0.547458 12.0052 0.630591 12.0043C0.713723 12.0034 0.795835 11.9859 0.872099 11.9528C0.948363 11.9197 1.01724 11.8716 1.07468 11.8115L6.00343 6.88529L10.9309 11.8128C11.0494 11.9212 11.2052 11.9798 11.3658 11.9762C11.5264 11.9727 11.6795 11.9073 11.7931 11.7937C11.9067 11.6801 11.9721 11.5271 11.9756 11.3664C11.9792 11.2058 11.9206 11.0501 11.8122 10.9315L6.88468 6.00404L11.8122 1.07529C11.8724 1.01793 11.9205 0.949126 11.9537 0.872909C11.9869 0.796692 12.0045 0.714606 12.0056 0.631474C12.0066 0.548343 11.991 0.465845 11.9597 0.388829C11.9284 0.311813 11.882 0.241834 11.8232 0.183005C11.7645 0.124176 11.6946 0.0776844 11.6176 0.0462633C11.5406 0.0148422 11.4582 -0.00087423 11.375 3.75129e-05C11.2919 0.000949256 11.2098 0.0184709 11.1335 0.0515726C11.0573 0.0846742 10.9884 0.132688 10.9309 0.192791V0.194041Z" fill="#606060"/>
</svg>
